# xmcd CD database file
#
# Track frame offsets:
#	150
#	20190
#	36296
#	48858
#	70681
#	83927
#	96458
#	114888
#	134031
#	150876
#	168187
#	184850
#	201115
#	217006
#	239562
#	252600
#	272225
#	283657
#	297018
#	318667
#	337383
#
# Disc length: 4674 seconds
#
# Revision: 2
# Processed by: cddbd v1.5PL3 Copyright (c) Steve Scherf et al.
# Submitted via: Feurio! 1.67 - http://www.feurio.com
#
DISCID=4b124015
DTITLE=Z. Z. Hill - Z. Z. Hill's Grestest Hits Plus Two Guest
DYEAR=1900
DGENRE=Blues
TTITLE0=Love Is So Good When Your Stealing It
TTITLE1=Right Arm For Your Love
TTITLE2=Blind Side
TTITLE3=Open House At My House
TTITLE4=Ain't Nothing You Can Do
TTITLE5=Can I Get A Witness
TTITLE6=Friday Is My Day
TTITLE7=Get A Little, Give A Little
TTITLE8=When It Rains It Pours
TTITLE9=Stop You From Givin' Me The Blues
TTITLE10=Someone Else Is Steppin' In
TTITLE11=I'm A Blues Man
TTITLE12=Bump 'N Grind
TTITLE13=Everybody Knows About My Good Thing
TTITLE14=Three Into Two Won't Go
TTITLE15=When Can We Do This Again
TTITLE16=It's A Hang Up Baby
TTITLE17=Don't Make Me Pay For His Mistakes
TTITLE18=Please Don't Let Our Good Thing End
TTITLE19=Albert Collins - I Ain't Drunk
TTITLE20=Freda Payne - Band Of Gold
EXTD=
EXTT0=
EXTT1=
EXTT2=
EXTT3=
EXTT4=
EXTT5=
EXTT6=
EXTT7=
EXTT8=
EXTT9=
EXTT10=
EXTT11=
EXTT12=
EXTT13=
EXTT14=
EXTT15=
EXTT16=
EXTT17=
EXTT18=
EXTT19=
EXTT20=
PLAYORDER=
